<svg xmlns="http://www.w3.org/2000/svg" width="15.283" height="15.312" viewBox="0 0 15.283 15.312">
  <path id="phone" d="M16.393,12.714v2.154A1.436,1.436,0,0,1,14.828,16.3a14.211,14.211,0,0,1-6.2-2.2A14,14,0,0,1,4.322,9.791a14.211,14.211,0,0,1-2.2-6.226A1.436,1.436,0,0,1,3.547,2H5.7A1.436,1.436,0,0,1,7.137,3.235a9.22,9.22,0,0,0,.5,2.018,1.436,1.436,0,0,1-.323,1.515L6.4,7.68a11.49,11.49,0,0,0,4.309,4.309l.912-.912a1.436,1.436,0,0,1,1.515-.323,9.22,9.22,0,0,0,2.018.5,1.436,1.436,0,0,1,1.235,1.458Z" transform="translate(-1.611 -1.5)" fill="none" stroke="#fdf4f2" stroke-linecap="round" stroke-linejoin="round" stroke-width="1"/>
</svg>
